<?xml version="1.0" encoding="UTF-8"?>
<svg id="Layer_2" data-name="Layer 2" xmlns="http://www.w3.org/2000/svg" xmlns:xlink="http://www.w3.org/1999/xlink" viewBox="0 0 2485 603.56">
  <defs>
    <style>
      .cls-1 {
        fill: url(#linear-gradient);
        stroke-width: 0px;
      }
    </style>
    <linearGradient id="linear-gradient" x1="1242.5" y1="570.49" x2="1242.5" y2="-102.23" gradientUnits="userSpaceOnUse">
      <stop offset=".19" stop-color="#e5e5e5"/>
      <stop offset=".39" stop-color="#f5f5f5"/>
      <stop offset=".55" stop-color="#fff"/>
    </linearGradient>
  </defs>
  <g id="Clouds">
    <path class="cls-1" d="M487,77.23c99.66,42.94,107.08,56.52,154,75,270.78,106.62,574.45-127.2,670-17,19.24,22.19,17.6,43.99,48.78,65.7,48.44,33.73,97.43,12.52,178.22,11.3,95.23-1.44,97.85,26.98,239,47,92.71,13.15,164.62,11.25,205,10,76.88-2.38,193.93-6.96,332-57,73.47-26.63,131.12-58.24,171-83v468c-18.7,4.1-52.02,9.48-92,4-126.68-17.36-159.77-121.75-282-133-56.68-5.22-104.08,13.38-120,18-56.26,16.33-68.01,45.75-113,74-79.74,50.06-191.38,50.89-268,21-106.24-41.44-93.32-122.79-199-155-31.27-9.53-86.85-4.69-198,5-160.18,13.96-189.09,28.44-238,5-69.57-33.34-55.92-84.76-116-106-72.42-25.6-109.2,42.92-263,71-76.44,13.96-156.91,28.65-212-16-46.36-37.57-49.05-96.33-89-100-29.73-2.73-37.74,28.95-84,36-42.29,6.44-59.53-16.39-93-15-30.08,1.25-70.98,21.96-118,108V148.23C36.92,96.47,110.87,12.37,215,1.23c82.21-8.79,167.35,30.91,272,76Z"/>
  </g>
</svg>